<svg xmlns="http://www.w3.org/2000/svg" viewBox="1358.8 -1860.3 1950.3 1950.3" role="img" aria-labelledby="it"><title id="it">Isotipo Módula 22</title><g fill="#000000"><path d="M2355.3 -1419.6A678.0 720.0 0 0 1 2504.5 -1396.9L2459.2 -1222.7A498.1 540.1 0 0 0 2349.6 -1239.8Z"/><path d="M2545.4 -1384.1A678.0 720.0 0 0 1 2682.5 -1317.6L2568.4 -1127.2A456.0 498.0 0 0 0 2476.2 -1173.2Z"/><path d="M2718.3 -1293.2A678.0 720.0 0 0 1 2832.2 -1188.4L2642.0 -1012.8A419.2 461.2 0 0 0 2571.6 -1079.9Z"/><path d="M2860.1 -1154.2A678.0 720.0 0 0 1 2941.6 -1019.5L2683.9 -891.9A390.4 432.4 0 0 0 2637.0 -972.8Z"/><path d="M2959.3 -978.4A678.0 720.0 0 0 1 3001.7 -824.8L2700.6 -771.8A372.2 414.2 0 0 0 2677.3 -860.2Z"/><path d="M3007.8 -780.0A678.0 720.0 0 0 1 3007.8 -620.0L2697.7 -654.6A366.0 408.0 0 0 0 2697.7 -745.4Z"/><path d="M3001.7 -575.2A678.0 720.0 0 0 1 2959.3 -421.6L2677.3 -539.8A372.2 414.2 0 0 0 2700.6 -628.2Z"/><path d="M2941.6 -380.5A678.0 720.0 0 0 1 2860.1 -245.8L2637.0 -427.2A390.4 432.4 0 0 0 2683.9 -508.1Z"/><path d="M2832.2 -211.6A678.0 720.0 0 0 1 2718.3 -106.8L2571.6 -320.1A419.2 461.2 0 0 0 2642.0 -387.2Z"/><path d="M2682.5 -82.4A678.0 720.0 0 0 1 2545.4 -15.9L2476.2 -226.8A456.0 498.0 0 0 0 2568.4 -272.8Z"/><path d="M2504.5 -3.1A678.0 720.0 0 0 1 2355.3 19.6L2349.6 -160.2A498.1 540.1 0 0 0 2459.2 -177.3Z"/><path d="M2312.7 19.6A678.0 720.0 0 0 1 2163.5 -3.1L2208.8 -177.3A498.1 540.1 0 0 0 2318.4 -160.2Z"/><path d="M2122.6 -15.9A678.0 720.0 0 0 1 1985.5 -82.4L2099.6 -272.8A456.0 498.0 0 0 0 2191.8 -226.8Z"/><path d="M1949.7 -106.8A678.0 720.0 0 0 1 1835.8 -211.6L2026.0 -387.2A419.2 461.2 0 0 0 2096.4 -320.1Z"/><path d="M1807.9 -245.8A678.0 720.0 0 0 1 1726.4 -380.5L1984.1 -508.1A390.4 432.4 0 0 0 2031.0 -427.2Z"/><path d="M1708.7 -421.6A678.0 720.0 0 0 1 1666.3 -575.2L1967.4 -628.2A372.2 414.2 0 0 0 1990.7 -539.8Z"/><path d="M1660.2 -620.0A678.0 720.0 0 0 1 1660.2 -780.0L1970.3 -745.4A366.0 408.0 0 0 0 1970.3 -654.6Z"/><path d="M1666.3 -824.8A678.0 720.0 0 0 1 1708.7 -978.4L1990.7 -860.2A372.2 414.2 0 0 0 1967.4 -771.8Z"/><path d="M1726.4 -1019.5A678.0 720.0 0 0 1 1807.9 -1154.2L2031.0 -972.8A390.4 432.4 0 0 0 1984.1 -891.9Z"/><path d="M1835.8 -1188.4A678.0 720.0 0 0 1 1949.7 -1293.2L2096.4 -1079.9A419.2 461.2 0 0 0 2026.0 -1012.8Z"/><path d="M1985.5 -1317.6A678.0 720.0 0 0 1 2122.6 -1384.1L2191.8 -1173.2A456.0 498.0 0 0 0 2099.6 -1127.2Z"/><path d="M2163.5 -1396.9A678.0 720.0 0 0 1 2312.7 -1419.6L2318.4 -1239.8A498.1 540.1 0 0 0 2208.8 -1222.7Z"/><g transform="translate(137.0 -298.0) rotate(-32 2334.0 -1320.0) scale(1.0) translate(-0.0 0.0)"><path d="M2168.8 -1398.3A678.0 720.0 0 0 1 2499.2 -1398.3L2450.4 -1204.3A478.0 520.0 0 0 0 2217.6 -1204.3Z"/></g></g></svg>