<svg xmlns="http://www.w3.org/2000/svg" viewBox="-40 -1850 9230 2740" role="img" aria-labelledby="lt"><title id="lt">Módula 22 — Plan 22 · Preparatoria Abierta</title><g fill="#221c1a"><path d="M843.0 -521 821.0 -485 1141.0 -1368Q1148.0 -1388 1154.5 -1394.0Q1161.0 -1400 1172.0 -1400H1508.0Q1513.0 -1400 1515.0 -1398.0Q1517.0 -1396 1517.0 -1394Q1517.0 -1391 1514.5 -1389.0Q1512.0 -1387 1506.0 -1386L1421.0 -1373Q1404.0 -1370 1395.5 -1356.5Q1387.0 -1343 1389.0 -1322L1478.0 -72Q1480.0 -47 1486.0 -38.5Q1492.0 -30 1513.0 -26L1593.0 -14Q1599.0 -13 1601.5 -11.5Q1604.0 -10 1604.0 -6Q1604.0 -4 1602.0 -2.0Q1600.0 0 1595.0 0H1077.0Q1073.0 0 1070.5 -2.0Q1068.0 -4 1068.0 -6Q1068.0 -10 1070.5 -11.5Q1073.0 -13 1080.0 -14L1159.0 -26Q1181.0 -30 1189.5 -39.5Q1198.0 -49 1196.0 -72L1112.0 -1263L1128.0 -1276L729.0 -138Q724.0 -122 719.0 -117.5Q714.0 -113 710.0 -113Q707.0 -113 704.0 -115.0Q701.0 -117 698.0 -122.5Q695.0 -128 692.0 -138L253.0 -1257L267.0 -1284L186.0 -145Q183.0 -104 212.0 -73.5Q241.0 -43 290.0 -30L373.0 -14Q378.0 -13 380.0 -11.5Q382.0 -10 382.0 -6Q382.0 -4 380.5 -2.0Q379.0 0 375.0 0H-3.0Q-8.0 0 -10.0 -2.0Q-12.0 -4 -12.0 -6Q-12.0 -10 -8.5 -11.5Q-5.0 -13 -1.0 -14L58.0 -29Q103.0 -42 133.0 -72.0Q163.0 -102 166.0 -148L244.0 -1242Q250.0 -1303 242.5 -1335.5Q235.0 -1368 209.0 -1372L136.0 -1383Q125.0 -1385 120.0 -1386.5Q115.0 -1388 115.0 -1392Q115.0 -1400 130.0 -1400H474.0Q484.0 -1400 490.5 -1394.5Q497.0 -1389 503.0 -1374Z"/><path d="M3111.0 -6Q3111.0 -13 3122.0 -14L3208.0 -27Q3227.0 -30 3235.0 -36.5Q3243.0 -43 3243.0 -55V-1342Q3243.0 -1356 3235.0 -1363.0Q3227.0 -1370 3209.0 -1373L3120.0 -1387Q3111.0 -1388 3111.0 -1394Q3111.0 -1397 3113.5 -1398.5Q3116.0 -1400 3120.0 -1400H3604.0Q3785.0 -1400 3934.5 -1347.5Q4084.0 -1295 4192.5 -1194.5Q4301.0 -1094 4360.0 -950.0Q4419.0 -806 4419.0 -624Q4419.0 -427 4329.5 -287.5Q4240.0 -148 4080.0 -74.0Q3920.0 0 3707.0 0H3120.0Q3116.0 0 3113.5 -2.0Q3111.0 -4 3111.0 -6ZM3707.0 -18Q3827.0 -18 3921.5 -84.5Q4016.0 -151 4070.5 -291.5Q4125.0 -432 4125.0 -655Q4125.0 -831 4089.5 -966.5Q4054.0 -1102 3986.0 -1194.5Q3918.0 -1287 3822.0 -1334.5Q3726.0 -1382 3605.0 -1382H3523.0V-55Q3523.0 -38 3533.0 -28.0Q3543.0 -18 3561.0 -18Z"/><path d="M5569.0 -605 5532.0 -1235Q5529.0 -1288 5504.0 -1320.5Q5479.0 -1353 5422.0 -1369L5350.0 -1386Q5344.0 -1388 5342.0 -1389.5Q5340.0 -1391 5340.0 -1394Q5340.0 -1396 5342.0 -1398.0Q5344.0 -1400 5348.0 -1400H5719.0Q5723.0 -1400 5725.0 -1398.0Q5727.0 -1396 5727.0 -1394Q5727.0 -1391 5724.0 -1389.0Q5721.0 -1387 5715.0 -1385L5654.0 -1367Q5606.0 -1353 5578.0 -1318.5Q5550.0 -1284 5553.0 -1236L5589.0 -615Q5593.0 -561 5596.0 -508.0Q5599.0 -455 5599.0 -400Q5599.0 -283 5554.0 -186.5Q5509.0 -90 5409.0 -33.0Q5309.0 24 5144.0 24Q4959.0 24 4837.5 -28.5Q4716.0 -81 4657.5 -172.0Q4599.0 -263 4599.0 -379Q4599.0 -408 4601.0 -454.0Q4603.0 -500 4606.0 -546.5Q4609.0 -593 4611.0 -626L4655.0 -1346Q4656.0 -1358 4646.0 -1364.0Q4636.0 -1370 4616.0 -1374L4535.0 -1386Q4523.0 -1389 4523.0 -1394Q4523.0 -1396 4525.5 -1398.0Q4528.0 -1400 4533.0 -1400H5057.0Q5061.0 -1400 5063.5 -1398.0Q5066.0 -1396 5066.0 -1394Q5066.0 -1391 5063.5 -1389.5Q5061.0 -1388 5054.0 -1386L4970.0 -1374Q4950.0 -1370 4941.0 -1364.0Q4932.0 -1358 4931.0 -1344L4889.0 -633Q4884.0 -556 4883.5 -491.5Q4883.0 -427 4883.0 -384Q4883.0 -187 4967.5 -95.5Q5052.0 -4 5199.0 -4Q5311.0 -4 5396.5 -50.5Q5482.0 -97 5529.5 -184.0Q5577.0 -271 5577.0 -390Q5577.0 -457 5574.0 -509.0Q5571.0 -561 5569.0 -605Z"/><path d="M6335.0 -1386 6254.0 -1374Q6235.0 -1371 6225.0 -1364.5Q6215.0 -1358 6215.0 -1346V-60Q6215.0 -38 6227.5 -28.5Q6240.0 -19 6264.0 -19H6451.0Q6499.0 -19 6543.5 -38.0Q6588.0 -57 6632.5 -107.0Q6677.0 -157 6724.0 -250L6822.0 -444Q6824.0 -448 6826.5 -450.5Q6829.0 -453 6832.0 -452Q6836.0 -451 6837.5 -447.0Q6839.0 -443 6837.0 -436L6743.0 6Q6740.0 20 6738.5 23.5Q6737.0 27 6734.0 27Q6728.0 27 6715.0 20.0Q6702.0 13 6681.0 6.5Q6660.0 0 6630.0 0H5813.0Q5808.0 0 5805.5 -2.0Q5803.0 -4 5803.0 -6Q5803.0 -12 5815.0 -14L5896.0 -26Q5916.0 -30 5925.5 -36.0Q5935.0 -42 5935.0 -54V-1346Q5935.0 -1358 5925.5 -1364.5Q5916.0 -1371 5896.0 -1374L5815.0 -1386Q5803.0 -1388 5803.0 -1394Q5803.0 -1396 5805.5 -1398.0Q5808.0 -1400 5813.0 -1400H6337.0Q6342.0 -1400 6344.5 -1398.0Q6347.0 -1396 6347.0 -1394Q6347.0 -1388 6335.0 -1386Z"/><path d="M7038.0 -539H7547.0L7550.0 -520H7033.0ZM7092.0 -6Q7092.0 -4 7090.0 -2.0Q7088.0 0 7084.0 0H6765.0Q6762.0 0 6760.0 -2.0Q6758.0 -4 6758.0 -6Q6758.0 -10 6761.0 -11.5Q6764.0 -13 6766.0 -14L6804.0 -25Q6836.0 -36 6868.5 -71.0Q6901.0 -106 6923.0 -179L7246.0 -1279Q7258.0 -1318 7246.5 -1342.0Q7235.0 -1366 7205.0 -1379Q7193.0 -1387 7187.5 -1389.0Q7182.0 -1391 7182.0 -1394Q7182.0 -1397 7184.5 -1398.5Q7187.0 -1400 7192.0 -1400H7581.0Q7585.0 -1400 7587.0 -1398.5Q7589.0 -1397 7589.0 -1394Q7589.0 -1391 7584.5 -1388.0Q7580.0 -1385 7568.0 -1380Q7544.0 -1376 7539.0 -1366.5Q7534.0 -1357 7542.0 -1330L7945.0 -66Q7953.0 -43 7968.0 -31.0Q7983.0 -19 8007.0 -16Q8013.0 -14 8015.5 -12.0Q8018.0 -10 8018.0 -6Q8018.0 -4 8015.5 -2.0Q8013.0 0 8009.0 0H7568.0Q7564.0 0 7561.5 -2.0Q7559.0 -4 7559.0 -6Q7559.0 -10 7562.0 -11.0Q7565.0 -12 7571.0 -14L7619.0 -22Q7643.0 -28 7649.0 -41.0Q7655.0 -54 7647.0 -79L7262.0 -1295L7286.0 -1347L6941.0 -176Q6929.0 -135 6940.5 -105.0Q6952.0 -75 6981.0 -55.0Q7010.0 -35 7050.0 -22L7082.0 -14Q7088.0 -13 7090.0 -11.5Q7092.0 -10 7092.0 -6Z"/><path d="M2355.3 -1419.6A678.0 720.0 0 0 1 2504.5 -1396.9L2459.2 -1222.7A498.1 540.1 0 0 0 2349.6 -1239.8Z"/><path d="M2545.4 -1384.1A678.0 720.0 0 0 1 2682.5 -1317.6L2568.4 -1127.2A456.0 498.0 0 0 0 2476.2 -1173.2Z"/><path d="M2718.3 -1293.2A678.0 720.0 0 0 1 2832.2 -1188.4L2642.0 -1012.8A419.2 461.2 0 0 0 2571.6 -1079.9Z"/><path d="M2860.1 -1154.2A678.0 720.0 0 0 1 2941.6 -1019.5L2683.9 -891.9A390.4 432.4 0 0 0 2637.0 -972.8Z"/><path d="M2959.3 -978.4A678.0 720.0 0 0 1 3001.7 -824.8L2700.6 -771.8A372.2 414.2 0 0 0 2677.3 -860.2Z"/><path d="M3007.8 -780.0A678.0 720.0 0 0 1 3007.8 -620.0L2697.7 -654.6A366.0 408.0 0 0 0 2697.7 -745.4Z"/><path d="M3001.7 -575.2A678.0 720.0 0 0 1 2959.3 -421.6L2677.3 -539.8A372.2 414.2 0 0 0 2700.6 -628.2Z"/><path d="M2941.6 -380.5A678.0 720.0 0 0 1 2860.1 -245.8L2637.0 -427.2A390.4 432.4 0 0 0 2683.9 -508.1Z"/><path d="M2832.2 -211.6A678.0 720.0 0 0 1 2718.3 -106.8L2571.6 -320.1A419.2 461.2 0 0 0 2642.0 -387.2Z"/><path d="M2682.5 -82.4A678.0 720.0 0 0 1 2545.4 -15.9L2476.2 -226.8A456.0 498.0 0 0 0 2568.4 -272.8Z"/><path d="M2504.5 -3.1A678.0 720.0 0 0 1 2355.3 19.6L2349.6 -160.2A498.1 540.1 0 0 0 2459.2 -177.3Z"/><path d="M2312.7 19.6A678.0 720.0 0 0 1 2163.5 -3.1L2208.8 -177.3A498.1 540.1 0 0 0 2318.4 -160.2Z"/><path d="M2122.6 -15.9A678.0 720.0 0 0 1 1985.5 -82.4L2099.6 -272.8A456.0 498.0 0 0 0 2191.8 -226.8Z"/><path d="M1949.7 -106.8A678.0 720.0 0 0 1 1835.8 -211.6L2026.0 -387.2A419.2 461.2 0 0 0 2096.4 -320.1Z"/><path d="M1807.9 -245.8A678.0 720.0 0 0 1 1726.4 -380.5L1984.1 -508.1A390.4 432.4 0 0 0 2031.0 -427.2Z"/><path d="M1708.7 -421.6A678.0 720.0 0 0 1 1666.3 -575.2L1967.4 -628.2A372.2 414.2 0 0 0 1990.7 -539.8Z"/><path d="M1660.2 -620.0A678.0 720.0 0 0 1 1660.2 -780.0L1970.3 -745.4A366.0 408.0 0 0 0 1970.3 -654.6Z"/><path d="M1666.3 -824.8A678.0 720.0 0 0 1 1708.7 -978.4L1990.7 -860.2A372.2 414.2 0 0 0 1967.4 -771.8Z"/><path d="M1726.4 -1019.5A678.0 720.0 0 0 1 1807.9 -1154.2L2031.0 -972.8A390.4 432.4 0 0 0 1984.1 -891.9Z"/><path d="M1835.8 -1188.4A678.0 720.0 0 0 1 1949.7 -1293.2L2096.4 -1079.9A419.2 461.2 0 0 0 2026.0 -1012.8Z"/><path d="M1985.5 -1317.6A678.0 720.0 0 0 1 2122.6 -1384.1L2191.8 -1173.2A456.0 498.0 0 0 0 2099.6 -1127.2Z"/><path d="M2163.5 -1396.9A678.0 720.0 0 0 1 2312.7 -1419.6L2318.4 -1239.8A498.1 540.1 0 0 0 2208.8 -1222.7Z"/><g transform="translate(137.0 -298.0) rotate(-32 2334.0 -1320.0) scale(1.0) translate(-0.0 0.0)"><path d="M2168.8 -1398.3A678.0 720.0 0 0 1 2499.2 -1398.3L2450.4 -1204.3A478.0 520.0 0 0 0 2217.6 -1204.3Z"/></g></g><g fill="#221c1a"><g transform="translate(8269.0 -840.0) scale(0.4)"><path d="M185.0 -306.0 178.0 -316.0 368.0 -439.0Q488.0 -518.0 567.5 -609.0Q647.0 -700.0 686.0 -809.0Q725.0 -918.0 725.0 -1050.0Q725.0 -1179.0 697.5 -1257.0Q670.0 -1335.0 625.0 -1370.5Q580.0 -1406.0 527.0 -1406.0Q432.0 -1406.0 383.5 -1349.5Q335.0 -1293.0 335.0 -1195.0V-1065.0Q335.0 -995.0 298.0 -955.5Q261.0 -916.0 207.0 -916.0Q149.0 -916.0 116.0 -949.5Q83.0 -983.0 83.0 -1045.0Q83.0 -1140.0 139.5 -1226.0Q196.0 -1312.0 307.5 -1366.0Q419.0 -1420.0 582.0 -1420.0Q719.0 -1420.0 815.5 -1374.5Q912.0 -1329.0 962.5 -1249.0Q1013.0 -1169.0 1013.0 -1065.0Q1013.0 -960.0 961.5 -867.0Q910.0 -774.0 796.0 -680.0Q682.0 -586.0 494.0 -476.0ZM57.0 -108.0Q57.0 -221.0 140.0 -290.5Q223.0 -360.0 380.0 -360.0Q441.0 -360.0 504.5 -341.5Q568.0 -323.0 631.0 -299.5Q694.0 -276.0 753.5 -257.5Q813.0 -239.0 866.0 -239.0Q942.0 -239.0 983.5 -271.0Q1025.0 -303.0 1051.0 -385.0Q1053.0 -390.0 1054.5 -391.5Q1056.0 -393.0 1058.0 -392.0Q1061.0 -391.0 1061.5 -389.0Q1062.0 -387.0 1062.0 -384.0Q1045.0 -228.0 1005.0 -141.0Q965.0 -54.0 904.0 -18.5Q843.0 17.0 765.0 17.0Q697.0 17.0 645.0 -7.0Q593.0 -31.0 545.5 -92.0Q498.0 -153.0 443.0 -263.0Q407.0 -310.0 385.5 -328.0Q364.0 -346.0 347.0 -346.0Q321.0 -346.0 306.0 -316.0Q291.0 -286.0 288.0 -204.0Q283.0 -117.0 264.5 -69.5Q246.0 -22.0 217.0 -3.5Q188.0 15.0 150.0 15.0Q106.0 15.0 81.5 -19.0Q57.0 -53.0 57.0 -108.0Z"/><path d="M1276.0 -306.0 1269.0 -316.0 1459.0 -439.0Q1579.0 -518.0 1658.5 -609.0Q1738.0 -700.0 1777.0 -809.0Q1816.0 -918.0 1816.0 -1050.0Q1816.0 -1179.0 1788.5 -1257.0Q1761.0 -1335.0 1716.0 -1370.5Q1671.0 -1406.0 1618.0 -1406.0Q1523.0 -1406.0 1474.5 -1349.5Q1426.0 -1293.0 1426.0 -1195.0V-1065.0Q1426.0 -995.0 1389.0 -955.5Q1352.0 -916.0 1298.0 -916.0Q1240.0 -916.0 1207.0 -949.5Q1174.0 -983.0 1174.0 -1045.0Q1174.0 -1140.0 1230.5 -1226.0Q1287.0 -1312.0 1398.5 -1366.0Q1510.0 -1420.0 1673.0 -1420.0Q1810.0 -1420.0 1906.5 -1374.5Q2003.0 -1329.0 2053.5 -1249.0Q2104.0 -1169.0 2104.0 -1065.0Q2104.0 -960.0 2052.5 -867.0Q2001.0 -774.0 1887.0 -680.0Q1773.0 -586.0 1585.0 -476.0ZM1148.0 -108.0Q1148.0 -221.0 1231.0 -290.5Q1314.0 -360.0 1471.0 -360.0Q1532.0 -360.0 1595.5 -341.5Q1659.0 -323.0 1722.0 -299.5Q1785.0 -276.0 1844.5 -257.5Q1904.0 -239.0 1957.0 -239.0Q2033.0 -239.0 2074.5 -271.0Q2116.0 -303.0 2142.0 -385.0Q2144.0 -390.0 2145.5 -391.5Q2147.0 -393.0 2149.0 -392.0Q2152.0 -391.0 2152.5 -389.0Q2153.0 -387.0 2153.0 -384.0Q2136.0 -228.0 2096.0 -141.0Q2056.0 -54.0 1995.0 -18.5Q1934.0 17.0 1856.0 17.0Q1788.0 17.0 1736.0 -7.0Q1684.0 -31.0 1636.5 -92.0Q1589.0 -153.0 1534.0 -263.0Q1498.0 -310.0 1476.5 -328.0Q1455.0 -346.0 1438.0 -346.0Q1412.0 -346.0 1397.0 -316.0Q1382.0 -286.0 1379.0 -204.0Q1374.0 -117.0 1355.5 -69.5Q1337.0 -22.0 1308.0 -3.5Q1279.0 15.0 1241.0 15.0Q1197.0 15.0 1172.5 -19.0Q1148.0 -53.0 1148.0 -108.0Z"/></g></g><rect x="-40" y="300" width="9230" height="9" fill="#221c1a"/><g fill="#221c1a" transform="translate(1713.7 760) scale(0.1596049534222123)"><path d="M630.0 -564.0H378.0V0.0H150.0V-1390.0H630.0Q790.0 -1390.0 901.0 -1335.0Q1012.0 -1280.0 1067.0 -1186.0Q1122.0 -1092.0 1122.0 -976.0Q1122.0 -870.0 1072.0 -776.0Q1022.0 -682.0 912.0 -623.0Q802.0 -564.0 630.0 -564.0ZM888.0 -976.0Q888.0 -1204.0 630.0 -1204.0H378.0V-750.0H630.0Q760.0 -750.0 824.0 -809.0Q888.0 -868.0 888.0 -976.0Z"/><path d="M1686.0 -184.0H2156.0V0.0H1458.0V-1390.0H1686.0Z"/><path d="M3302.0 -284.0H2720.0L2620.0 0.0H2382.0L2880.0 -1392.0H3144.0L3642.0 0.0H3402.0ZM3238.0 -470.0 3012.0 -1116.0 2784.0 -470.0Z"/><path d="M5118.0 0.0H4890.0L4204.0 -1038.0V0.0H3976.0V-1392.0H4204.0L4890.0 -356.0V-1392.0H5118.0Z"/><path d="M6270.0 -310.0Q6462.0 -476.0 6573.0 -583.0Q6684.0 -690.0 6758.0 -806.0Q6832.0 -922.0 6832.0 -1038.0Q6832.0 -1158.0 6775.0 -1226.0Q6718.0 -1294.0 6596.0 -1294.0Q6478.0 -1294.0 6413.0 -1219.0Q6348.0 -1144.0 6344.0 -1018.0H6124.0Q6130.0 -1246.0 6261.0 -1367.0Q6392.0 -1488.0 6594.0 -1488.0Q6812.0 -1488.0 6935.0 -1368.0Q7058.0 -1248.0 7058.0 -1048.0Q7058.0 -904.0 6985.0 -771.0Q6912.0 -638.0 6811.0 -533.0Q6710.0 -428.0 6554.0 -290.0L6464.0 -210.0H7098.0V-20.0H6126.0V-186.0Z"/><path d="M7542.0 -310.0Q7734.0 -476.0 7845.0 -583.0Q7956.0 -690.0 8030.0 -806.0Q8104.0 -922.0 8104.0 -1038.0Q8104.0 -1158.0 8047.0 -1226.0Q7990.0 -1294.0 7868.0 -1294.0Q7750.0 -1294.0 7685.0 -1219.0Q7620.0 -1144.0 7616.0 -1018.0H7396.0Q7402.0 -1246.0 7533.0 -1367.0Q7664.0 -1488.0 7866.0 -1488.0Q8084.0 -1488.0 8207.0 -1368.0Q8330.0 -1248.0 8330.0 -1048.0Q8330.0 -904.0 8257.0 -771.0Q8184.0 -638.0 8083.0 -533.0Q7982.0 -428.0 7826.0 -290.0L7736.0 -210.0H8370.0V-20.0H7398.0V-186.0Z"/><path d="M9310.0 -670.0Q9310.0 -732.0 9352.0 -774.0Q9394.0 -816.0 9456.0 -816.0Q9516.0 -816.0 9558.0 -774.0Q9600.0 -732.0 9600.0 -670.0Q9600.0 -608.0 9558.0 -566.0Q9516.0 -524.0 9456.0 -524.0Q9394.0 -524.0 9352.0 -566.0Q9310.0 -608.0 9310.0 -670.0Z"/><path d="M11080.0 -564.0H10828.0V0.0H10600.0V-1390.0H11080.0Q11240.0 -1390.0 11351.0 -1335.0Q11462.0 -1280.0 11517.0 -1186.0Q11572.0 -1092.0 11572.0 -976.0Q11572.0 -870.0 11522.0 -776.0Q11472.0 -682.0 11362.0 -623.0Q11252.0 -564.0 11080.0 -564.0ZM11338.0 -976.0Q11338.0 -1204.0 11080.0 -1204.0H10828.0V-750.0H11080.0Q11210.0 -750.0 11274.0 -809.0Q11338.0 -868.0 11338.0 -976.0Z"/><path d="M12630.0 0.0 12310.0 -556.0H12136.0V0.0H11908.0V-1390.0H12388.0Q12548.0 -1390.0 12659.0 -1334.0Q12770.0 -1278.0 12825.0 -1184.0Q12880.0 -1090.0 12880.0 -974.0Q12880.0 -838.0 12801.0 -727.0Q12722.0 -616.0 12558.0 -576.0L12902.0 0.0ZM12136.0 -738.0H12388.0Q12516.0 -738.0 12581.0 -802.0Q12646.0 -866.0 12646.0 -974.0Q12646.0 -1082.0 12582.0 -1143.0Q12518.0 -1204.0 12388.0 -1204.0H12136.0Z"/><path d="M13518.0 -1206.0V-798.0H13998.0V-612.0H13518.0V-186.0H14058.0V0.0H13290.0V-1392.0H14058.0V-1206.0Z"/><path d="M14936.0 -564.0H14684.0V0.0H14456.0V-1390.0H14936.0Q15096.0 -1390.0 15207.0 -1335.0Q15318.0 -1280.0 15373.0 -1186.0Q15428.0 -1092.0 15428.0 -976.0Q15428.0 -870.0 15378.0 -776.0Q15328.0 -682.0 15218.0 -623.0Q15108.0 -564.0 14936.0 -564.0ZM15194.0 -976.0Q15194.0 -1204.0 14936.0 -1204.0H14684.0V-750.0H14936.0Q15066.0 -750.0 15130.0 -809.0Q15194.0 -868.0 15194.0 -976.0Z"/><path d="M16602.0 -284.0H16020.0L15920.0 0.0H15682.0L16180.0 -1392.0H16444.0L16942.0 0.0H16702.0ZM16538.0 -470.0 16312.0 -1116.0 16084.0 -470.0Z"/><path d="M17998.0 0.0 17678.0 -556.0H17504.0V0.0H17276.0V-1390.0H17756.0Q17916.0 -1390.0 18027.0 -1334.0Q18138.0 -1278.0 18193.0 -1184.0Q18248.0 -1090.0 18248.0 -974.0Q18248.0 -838.0 18169.0 -727.0Q18090.0 -616.0 17926.0 -576.0L18270.0 0.0ZM17504.0 -738.0H17756.0Q17884.0 -738.0 17949.0 -802.0Q18014.0 -866.0 18014.0 -974.0Q18014.0 -1082.0 17950.0 -1143.0Q17886.0 -1204.0 17756.0 -1204.0H17504.0Z"/><path d="M19496.0 -284.0H18914.0L18814.0 0.0H18576.0L19074.0 -1392.0H19338.0L19836.0 0.0H19596.0ZM19432.0 -470.0 19206.0 -1116.0 18978.0 -470.0Z"/><path d="M21068.0 -1390.0V-1204.0H20698.0V0.0H20470.0V-1204.0H20098.0V-1390.0Z"/><path d="M21340.0 -698.0Q21340.0 -902.0 21435.0 -1064.0Q21530.0 -1226.0 21693.0 -1317.0Q21856.0 -1408.0 22050.0 -1408.0Q22246.0 -1408.0 22409.0 -1317.0Q22572.0 -1226.0 22666.0 -1064.0Q22760.0 -902.0 22760.0 -698.0Q22760.0 -494.0 22666.0 -331.0Q22572.0 -168.0 22409.0 -77.0Q22246.0 14.0 22050.0 14.0Q21856.0 14.0 21693.0 -77.0Q21530.0 -168.0 21435.0 -331.0Q21340.0 -494.0 21340.0 -698.0ZM22526.0 -698.0Q22526.0 -852.0 22465.0 -968.0Q22404.0 -1084.0 22296.0 -1146.0Q22188.0 -1208.0 22050.0 -1208.0Q21912.0 -1208.0 21804.0 -1146.0Q21696.0 -1084.0 21635.0 -968.0Q21574.0 -852.0 21574.0 -698.0Q21574.0 -544.0 21635.0 -427.0Q21696.0 -310.0 21804.0 -247.0Q21912.0 -184.0 22050.0 -184.0Q22188.0 -184.0 22296.0 -247.0Q22404.0 -310.0 22465.0 -427.0Q22526.0 -544.0 22526.0 -698.0Z"/><path d="M23824.0 0.0 23504.0 -556.0H23330.0V0.0H23102.0V-1390.0H23582.0Q23742.0 -1390.0 23853.0 -1334.0Q23964.0 -1278.0 24019.0 -1184.0Q24074.0 -1090.0 24074.0 -974.0Q24074.0 -838.0 23995.0 -727.0Q23916.0 -616.0 23752.0 -576.0L24096.0 0.0ZM23330.0 -738.0H23582.0Q23710.0 -738.0 23775.0 -802.0Q23840.0 -866.0 23840.0 -974.0Q23840.0 -1082.0 23776.0 -1143.0Q23712.0 -1204.0 23582.0 -1204.0H23330.0Z"/><path d="M24712.0 -1390.0V0.0H24484.0V-1390.0Z"/><path d="M25968.0 -284.0H25386.0L25286.0 0.0H25048.0L25546.0 -1392.0H25810.0L26308.0 0.0H26068.0ZM25904.0 -470.0 25678.0 -1116.0 25450.0 -470.0Z"/><path d="M28118.0 -284.0H27536.0L27436.0 0.0H27198.0L27696.0 -1392.0H27960.0L28458.0 0.0H28218.0ZM28054.0 -470.0 27828.0 -1116.0 27600.0 -470.0Z"/><path d="M29804.0 -374.0Q29804.0 -268.0 29749.0 -183.0Q29694.0 -98.0 29590.0 -49.0Q29486.0 0.0 29348.0 0.0H28792.0V-1390.0H29322.0Q29464.0 -1390.0 29566.0 -1342.0Q29668.0 -1294.0 29720.0 -1213.0Q29772.0 -1132.0 29772.0 -1032.0Q29772.0 -912.0 29708.0 -832.0Q29644.0 -752.0 29536.0 -714.0Q29648.0 -694.0 29726.0 -596.0Q29804.0 -498.0 29804.0 -374.0ZM29020.0 -806.0H29302.0Q29414.0 -806.0 29477.0 -857.0Q29540.0 -908.0 29540.0 -1004.0Q29540.0 -1098.0 29477.0 -1151.0Q29414.0 -1204.0 29302.0 -1204.0H29020.0ZM29576.0 -398.0Q29576.0 -500.0 29506.0 -560.0Q29436.0 -620.0 29320.0 -620.0H29020.0V-186.0H29328.0Q29444.0 -186.0 29510.0 -242.0Q29576.0 -298.0 29576.0 -398.0Z"/><path d="M30398.0 -1390.0V0.0H30170.0V-1390.0Z"/><path d="M31044.0 -1206.0V-798.0H31524.0V-612.0H31044.0V-186.0H31584.0V0.0H30816.0V-1392.0H31584.0V-1206.0Z"/><path d="M32704.0 0.0 32384.0 -556.0H32210.0V0.0H31982.0V-1390.0H32462.0Q32622.0 -1390.0 32733.0 -1334.0Q32844.0 -1278.0 32899.0 -1184.0Q32954.0 -1090.0 32954.0 -974.0Q32954.0 -838.0 32875.0 -727.0Q32796.0 -616.0 32632.0 -576.0L32976.0 0.0ZM32210.0 -738.0H32462.0Q32590.0 -738.0 32655.0 -802.0Q32720.0 -866.0 32720.0 -974.0Q32720.0 -1082.0 32656.0 -1143.0Q32592.0 -1204.0 32462.0 -1204.0H32210.0Z"/><path d="M34262.0 -1390.0V-1204.0H33892.0V0.0H33664.0V-1204.0H33292.0V-1390.0Z"/><path d="M35448.0 -284.0H34866.0L34766.0 0.0H34528.0L35026.0 -1392.0H35290.0L35788.0 0.0H35548.0ZM35384.0 -470.0 35158.0 -1116.0 34930.0 -470.0Z"/></g></svg>