<svg xmlns="http://www.w3.org/2000/svg" viewBox="0 0 1024 1024" role="img" aria-labelledby="t"><title id="t">Módula 22</title><rect width="1024" height="1024" rx="150" fill="#6b1530"/><g transform="translate(-359.3 842.5) scale(0.3733)" fill="#ffffff"><path fill-rule="evenodd" d="M1656.0 -700.0A678.0 720.0 0 1 0 3012.0 -700.0A678.0 720.0 0 1 0 1656.0 -700.0ZM1968.0 -700.0A366.0 562.0 0 1 0 2700.0 -700.0A366.0 562.0 0 1 0 1968.0 -700.0Z"/><g transform="translate(137.0 -298.0) rotate(-32 2334.0 -1320.0)"><path d="M2168.8 -1398.3A678.0 720.0 0 0 1 2499.2 -1398.3L2450.4 -1204.3A478.0 520.0 0 0 0 2217.6 -1204.3Z"/></g></g></svg>