<svg xmlns="http://www.w3.org/2000/svg" viewBox="0 0 600 400" fill="none" stroke="rgba(255,255,255,0.55)" stroke-width="1.5" stroke-linecap="round" stroke-linejoin="round">
  <line x1="60" y1="290" x2="540" y2="290" stroke-width="2"/>
  <line x1="60" y1="290" x2="60" y2="370" stroke-width="2"/>
  <line x1="540" y1="290" x2="540" y2="370" stroke-width="2"/>
  <circle cx="140" cy="170" r="22"/>
  <path d="M140 192 L140 215 M118 215 L162 215 L168 285 L112 285 Z"/>
  <path d="M118 230 L100 260 L130 275"/>
  <path d="M122 158 Q140 144 158 158"/>
  <rect x="100" y="265" width="60" height="22" rx="1"/>
  <line x1="108" y1="273" x2="150" y2="273" stroke-width="0.8"/>
  <line x1="108" y1="278" x2="145" y2="278" stroke-width="0.8"/>
  <line x1="108" y1="283" x2="135" y2="283" stroke-width="0.8"/>
  <line x1="128" y1="270" x2="118" y2="280" stroke-width="2"/>
  <circle cx="300" cy="160" r="24"/>
  <path d="M278 150 Q300 135 322 150"/>
  <path d="M324 165 Q335 175 332 195" stroke-width="1.2"/>
  <path d="M300 184 L300 210 M276 210 L324 210 L332 285 L268 285 Z"/>
  <path d="M278 230 L255 250"/>
  <path d="M322 230 L345 250"/>
  <path d="M250 250 L300 245 L350 250 L350 280 L300 275 L250 280 Z"/>
  <line x1="300" y1="245" x2="300" y2="275" stroke-width="1"/>
  <line x1="260" y1="258" x2="293" y2="255" stroke-width="0.6"/>
  <line x1="260" y1="265" x2="293" y2="262" stroke-width="0.6"/>
  <line x1="260" y1="272" x2="293" y2="269" stroke-width="0.6"/>
  <line x1="307" y1="255" x2="340" y2="258" stroke-width="0.6"/>
  <line x1="307" y1="262" x2="340" y2="265" stroke-width="0.6"/>
  <line x1="307" y1="269" x2="340" y2="272" stroke-width="0.6"/>
  <circle cx="460" cy="170" r="22"/>
  <path d="M442 158 Q460 145 478 158"/>
  <path d="M442 162 L442 170"/>
  <path d="M478 162 L478 170"/>
  <path d="M460 192 L460 215 M438 215 L482 215 L488 285 L432 285 Z"/>
  <path d="M482 230 L500 260 L470 275"/>
  <rect x="430" y="265" width="55" height="22" rx="1"/>
  <line x1="438" y1="273" x2="478" y2="273" stroke-width="0.8"/>
  <line x1="438" y1="278" x2="475" y2="278" stroke-width="0.8"/>
  <line x1="430" y1="268" x2="430" y2="284" stroke-width="0.6"/>
  <circle cx="300" cy="60" r="18" stroke-width="1"/>
  <line x1="300" y1="48" x2="300" y2="60" stroke-width="0.8"/>
  <line x1="300" y1="60" x2="308" y2="60" stroke-width="0.8"/>
  <path d="M75 80 L115 65 L155 80 L115 95 Z"/>
  <line x1="155" y1="80" x2="155" y2="100" stroke-width="0.8"/>
  <circle cx="155" cy="103" r="2.5" fill="rgba(255,255,255,0.55)"/>
  <path d="M450 90 L490 85 L530 90 L530 115 L490 110 L450 115 Z"/>
  <line x1="490" y1="85" x2="490" y2="110" stroke-width="0.8"/>
</svg>
