<svg xmlns="http://www.w3.org/2000/svg" viewBox="0 0 1200 630" role="img" aria-labelledby="o"><title id="o">Módula 22 · Plan 22 · Preparatoria Abierta</title><rect width="1200" height="630" fill="#6b1530"/><g transform="translate(231.2 386.3) scale(0.0806)"><g fill="#ffffff"><path d="M843.0 -521 821.0 -485 1141.0 -1368Q1148.0 -1388 1154.5 -1394.0Q1161.0 -1400 1172.0 -1400H1508.0Q1513.0 -1400 1515.0 -1398.0Q1517.0 -1396 1517.0 -1394Q1517.0 -1391 1514.5 -1389.0Q1512.0 -1387 1506.0 -1386L1421.0 -1373Q1404.0 -1370 1395.5 -1356.5Q1387.0 -1343 1389.0 -1322L1478.0 -72Q1480.0 -47 1486.0 -38.5Q1492.0 -30 1513.0 -26L1593.0 -14Q1599.0 -13 1601.5 -11.5Q1604.0 -10 1604.0 -6Q1604.0 -4 1602.0 -2.0Q1600.0 0 1595.0 0H1077.0Q1073.0 0 1070.5 -2.0Q1068.0 -4 1068.0 -6Q1068.0 -10 1070.5 -11.5Q1073.0 -13 1080.0 -14L1159.0 -26Q1181.0 -30 1189.5 -39.5Q1198.0 -49 1196.0 -72L1112.0 -1263L1128.0 -1276L729.0 -138Q724.0 -122 719.0 -117.5Q714.0 -113 710.0 -113Q707.0 -113 704.0 -115.0Q701.0 -117 698.0 -122.5Q695.0 -128 692.0 -138L253.0 -1257L267.0 -1284L186.0 -145Q183.0 -104 212.0 -73.5Q241.0 -43 290.0 -30L373.0 -14Q378.0 -13 380.0 -11.5Q382.0 -10 382.0 -6Q382.0 -4 380.5 -2.0Q379.0 0 375.0 0H-3.0Q-8.0 0 -10.0 -2.0Q-12.0 -4 -12.0 -6Q-12.0 -10 -8.5 -11.5Q-5.0 -13 -1.0 -14L58.0 -29Q103.0 -42 133.0 -72.0Q163.0 -102 166.0 -148L244.0 -1242Q250.0 -1303 242.5 -1335.5Q235.0 -1368 209.0 -1372L136.0 -1383Q125.0 -1385 120.0 -1386.5Q115.0 -1388 115.0 -1392Q115.0 -1400 130.0 -1400H474.0Q484.0 -1400 490.5 -1394.5Q497.0 -1389 503.0 -1374Z"/><path d="M3111.0 -6Q3111.0 -13 3122.0 -14L3208.0 -27Q3227.0 -30 3235.0 -36.5Q3243.0 -43 3243.0 -55V-1342Q3243.0 -1356 3235.0 -1363.0Q3227.0 -1370 3209.0 -1373L3120.0 -1387Q3111.0 -1388 3111.0 -1394Q3111.0 -1397 3113.5 -1398.5Q3116.0 -1400 3120.0 -1400H3604.0Q3785.0 -1400 3934.5 -1347.5Q4084.0 -1295 4192.5 -1194.5Q4301.0 -1094 4360.0 -950.0Q4419.0 -806 4419.0 -624Q4419.0 -427 4329.5 -287.5Q4240.0 -148 4080.0 -74.0Q3920.0 0 3707.0 0H3120.0Q3116.0 0 3113.5 -2.0Q3111.0 -4 3111.0 -6ZM3707.0 -18Q3827.0 -18 3921.5 -84.5Q4016.0 -151 4070.5 -291.5Q4125.0 -432 4125.0 -655Q4125.0 -831 4089.5 -966.5Q4054.0 -1102 3986.0 -1194.5Q3918.0 -1287 3822.0 -1334.5Q3726.0 -1382 3605.0 -1382H3523.0V-55Q3523.0 -38 3533.0 -28.0Q3543.0 -18 3561.0 -18Z"/><path d="M5569.0 -605 5532.0 -1235Q5529.0 -1288 5504.0 -1320.5Q5479.0 -1353 5422.0 -1369L5350.0 -1386Q5344.0 -1388 5342.0 -1389.5Q5340.0 -1391 5340.0 -1394Q5340.0 -1396 5342.0 -1398.0Q5344.0 -1400 5348.0 -1400H5719.0Q5723.0 -1400 5725.0 -1398.0Q5727.0 -1396 5727.0 -1394Q5727.0 -1391 5724.0 -1389.0Q5721.0 -1387 5715.0 -1385L5654.0 -1367Q5606.0 -1353 5578.0 -1318.5Q5550.0 -1284 5553.0 -1236L5589.0 -615Q5593.0 -561 5596.0 -508.0Q5599.0 -455 5599.0 -400Q5599.0 -283 5554.0 -186.5Q5509.0 -90 5409.0 -33.0Q5309.0 24 5144.0 24Q4959.0 24 4837.5 -28.5Q4716.0 -81 4657.5 -172.0Q4599.0 -263 4599.0 -379Q4599.0 -408 4601.0 -454.0Q4603.0 -500 4606.0 -546.5Q4609.0 -593 4611.0 -626L4655.0 -1346Q4656.0 -1358 4646.0 -1364.0Q4636.0 -1370 4616.0 -1374L4535.0 -1386Q4523.0 -1389 4523.0 -1394Q4523.0 -1396 4525.5 -1398.0Q4528.0 -1400 4533.0 -1400H5057.0Q5061.0 -1400 5063.5 -1398.0Q5066.0 -1396 5066.0 -1394Q5066.0 -1391 5063.5 -1389.5Q5061.0 -1388 5054.0 -1386L4970.0 -1374Q4950.0 -1370 4941.0 -1364.0Q4932.0 -1358 4931.0 -1344L4889.0 -633Q4884.0 -556 4883.5 -491.5Q4883.0 -427 4883.0 -384Q4883.0 -187 4967.5 -95.5Q5052.0 -4 5199.0 -4Q5311.0 -4 5396.5 -50.5Q5482.0 -97 5529.5 -184.0Q5577.0 -271 5577.0 -390Q5577.0 -457 5574.0 -509.0Q5571.0 -561 5569.0 -605Z"/><path d="M6335.0 -1386 6254.0 -1374Q6235.0 -1371 6225.0 -1364.5Q6215.0 -1358 6215.0 -1346V-60Q6215.0 -38 6227.5 -28.5Q6240.0 -19 6264.0 -19H6451.0Q6499.0 -19 6543.5 -38.0Q6588.0 -57 6632.5 -107.0Q6677.0 -157 6724.0 -250L6822.0 -444Q6824.0 -448 6826.5 -450.5Q6829.0 -453 6832.0 -452Q6836.0 -451 6837.5 -447.0Q6839.0 -443 6837.0 -436L6743.0 6Q6740.0 20 6738.5 23.5Q6737.0 27 6734.0 27Q6728.0 27 6715.0 20.0Q6702.0 13 6681.0 6.5Q6660.0 0 6630.0 0H5813.0Q5808.0 0 5805.5 -2.0Q5803.0 -4 5803.0 -6Q5803.0 -12 5815.0 -14L5896.0 -26Q5916.0 -30 5925.5 -36.0Q5935.0 -42 5935.0 -54V-1346Q5935.0 -1358 5925.5 -1364.5Q5916.0 -1371 5896.0 -1374L5815.0 -1386Q5803.0 -1388 5803.0 -1394Q5803.0 -1396 5805.5 -1398.0Q5808.0 -1400 5813.0 -1400H6337.0Q6342.0 -1400 6344.5 -1398.0Q6347.0 -1396 6347.0 -1394Q6347.0 -1388 6335.0 -1386Z"/><path d="M7038.0 -539H7547.0L7550.0 -520H7033.0ZM7092.0 -6Q7092.0 -4 7090.0 -2.0Q7088.0 0 7084.0 0H6765.0Q6762.0 0 6760.0 -2.0Q6758.0 -4 6758.0 -6Q6758.0 -10 6761.0 -11.5Q6764.0 -13 6766.0 -14L6804.0 -25Q6836.0 -36 6868.5 -71.0Q6901.0 -106 6923.0 -179L7246.0 -1279Q7258.0 -1318 7246.5 -1342.0Q7235.0 -1366 7205.0 -1379Q7193.0 -1387 7187.5 -1389.0Q7182.0 -1391 7182.0 -1394Q7182.0 -1397 7184.5 -1398.5Q7187.0 -1400 7192.0 -1400H7581.0Q7585.0 -1400 7587.0 -1398.5Q7589.0 -1397 7589.0 -1394Q7589.0 -1391 7584.5 -1388.0Q7580.0 -1385 7568.0 -1380Q7544.0 -1376 7539.0 -1366.5Q7534.0 -1357 7542.0 -1330L7945.0 -66Q7953.0 -43 7968.0 -31.0Q7983.0 -19 8007.0 -16Q8013.0 -14 8015.5 -12.0Q8018.0 -10 8018.0 -6Q8018.0 -4 8015.5 -2.0Q8013.0 0 8009.0 0H7568.0Q7564.0 0 7561.5 -2.0Q7559.0 -4 7559.0 -6Q7559.0 -10 7562.0 -11.0Q7565.0 -12 7571.0 -14L7619.0 -22Q7643.0 -28 7649.0 -41.0Q7655.0 -54 7647.0 -79L7262.0 -1295L7286.0 -1347L6941.0 -176Q6929.0 -135 6940.5 -105.0Q6952.0 -75 6981.0 -55.0Q7010.0 -35 7050.0 -22L7082.0 -14Q7088.0 -13 7090.0 -11.5Q7092.0 -10 7092.0 -6Z"/><path d="M2355.3 -1419.6A678.0 720.0 0 0 1 2504.5 -1396.9L2459.2 -1222.7A498.1 540.1 0 0 0 2349.6 -1239.8Z"/><path d="M2545.4 -1384.1A678.0 720.0 0 0 1 2682.5 -1317.6L2568.4 -1127.2A456.0 498.0 0 0 0 2476.2 -1173.2Z"/><path d="M2718.3 -1293.2A678.0 720.0 0 0 1 2832.2 -1188.4L2642.0 -1012.8A419.2 461.2 0 0 0 2571.6 -1079.9Z"/><path d="M2860.1 -1154.2A678.0 720.0 0 0 1 2941.6 -1019.5L2683.9 -891.9A390.4 432.4 0 0 0 2637.0 -972.8Z"/><path d="M2959.3 -978.4A678.0 720.0 0 0 1 3001.7 -824.8L2700.6 -771.8A372.2 414.2 0 0 0 2677.3 -860.2Z"/><path d="M3007.8 -780.0A678.0 720.0 0 0 1 3007.8 -620.0L2697.7 -654.6A366.0 408.0 0 0 0 2697.7 -745.4Z"/><path d="M3001.7 -575.2A678.0 720.0 0 0 1 2959.3 -421.6L2677.3 -539.8A372.2 414.2 0 0 0 2700.6 -628.2Z"/><path d="M2941.6 -380.5A678.0 720.0 0 0 1 2860.1 -245.8L2637.0 -427.2A390.4 432.4 0 0 0 2683.9 -508.1Z"/><path d="M2832.2 -211.6A678.0 720.0 0 0 1 2718.3 -106.8L2571.6 -320.1A419.2 461.2 0 0 0 2642.0 -387.2Z"/><path d="M2682.5 -82.4A678.0 720.0 0 0 1 2545.4 -15.9L2476.2 -226.8A456.0 498.0 0 0 0 2568.4 -272.8Z"/><path d="M2504.5 -3.1A678.0 720.0 0 0 1 2355.3 19.6L2349.6 -160.2A498.1 540.1 0 0 0 2459.2 -177.3Z"/><path d="M2312.7 19.6A678.0 720.0 0 0 1 2163.5 -3.1L2208.8 -177.3A498.1 540.1 0 0 0 2318.4 -160.2Z"/><path d="M2122.6 -15.9A678.0 720.0 0 0 1 1985.5 -82.4L2099.6 -272.8A456.0 498.0 0 0 0 2191.8 -226.8Z"/><path d="M1949.7 -106.8A678.0 720.0 0 0 1 1835.8 -211.6L2026.0 -387.2A419.2 461.2 0 0 0 2096.4 -320.1Z"/><path d="M1807.9 -245.8A678.0 720.0 0 0 1 1726.4 -380.5L1984.1 -508.1A390.4 432.4 0 0 0 2031.0 -427.2Z"/><path d="M1708.7 -421.6A678.0 720.0 0 0 1 1666.3 -575.2L1967.4 -628.2A372.2 414.2 0 0 0 1990.7 -539.8Z"/><path d="M1660.2 -620.0A678.0 720.0 0 0 1 1660.2 -780.0L1970.3 -745.4A366.0 408.0 0 0 0 1970.3 -654.6Z"/><path d="M1666.3 -824.8A678.0 720.0 0 0 1 1708.7 -978.4L1990.7 -860.2A372.2 414.2 0 0 0 1967.4 -771.8Z"/><path d="M1726.4 -1019.5A678.0 720.0 0 0 1 1807.9 -1154.2L2031.0 -972.8A390.4 432.4 0 0 0 1984.1 -891.9Z"/><path d="M1835.8 -1188.4A678.0 720.0 0 0 1 1949.7 -1293.2L2096.4 -1079.9A419.2 461.2 0 0 0 2026.0 -1012.8Z"/><path d="M1985.5 -1317.6A678.0 720.0 0 0 1 2122.6 -1384.1L2191.8 -1173.2A456.0 498.0 0 0 0 2099.6 -1127.2Z"/><path d="M2163.5 -1396.9A678.0 720.0 0 0 1 2312.7 -1419.6L2318.4 -1239.8A498.1 540.1 0 0 0 2208.8 -1222.7Z"/><g transform="translate(137.0 -298.0) rotate(-32 2334.0 -1320.0) scale(1.0) translate(-0.0 0.0)"><path d="M2168.8 -1398.3A678.0 720.0 0 0 1 2499.2 -1398.3L2450.4 -1204.3A478.0 520.0 0 0 0 2217.6 -1204.3Z"/></g></g><g fill="#ffffff"><g transform="translate(8269.0 -840.0) scale(0.4)"><path d="M185.0 -306.0 178.0 -316.0 368.0 -439.0Q488.0 -518.0 567.5 -609.0Q647.0 -700.0 686.0 -809.0Q725.0 -918.0 725.0 -1050.0Q725.0 -1179.0 697.5 -1257.0Q670.0 -1335.0 625.0 -1370.5Q580.0 -1406.0 527.0 -1406.0Q432.0 -1406.0 383.5 -1349.5Q335.0 -1293.0 335.0 -1195.0V-1065.0Q335.0 -995.0 298.0 -955.5Q261.0 -916.0 207.0 -916.0Q149.0 -916.0 116.0 -949.5Q83.0 -983.0 83.0 -1045.0Q83.0 -1140.0 139.5 -1226.0Q196.0 -1312.0 307.5 -1366.0Q419.0 -1420.0 582.0 -1420.0Q719.0 -1420.0 815.5 -1374.5Q912.0 -1329.0 962.5 -1249.0Q1013.0 -1169.0 1013.0 -1065.0Q1013.0 -960.0 961.5 -867.0Q910.0 -774.0 796.0 -680.0Q682.0 -586.0 494.0 -476.0ZM57.0 -108.0Q57.0 -221.0 140.0 -290.5Q223.0 -360.0 380.0 -360.0Q441.0 -360.0 504.5 -341.5Q568.0 -323.0 631.0 -299.5Q694.0 -276.0 753.5 -257.5Q813.0 -239.0 866.0 -239.0Q942.0 -239.0 983.5 -271.0Q1025.0 -303.0 1051.0 -385.0Q1053.0 -390.0 1054.5 -391.5Q1056.0 -393.0 1058.0 -392.0Q1061.0 -391.0 1061.5 -389.0Q1062.0 -387.0 1062.0 -384.0Q1045.0 -228.0 1005.0 -141.0Q965.0 -54.0 904.0 -18.5Q843.0 17.0 765.0 17.0Q697.0 17.0 645.0 -7.0Q593.0 -31.0 545.5 -92.0Q498.0 -153.0 443.0 -263.0Q407.0 -310.0 385.5 -328.0Q364.0 -346.0 347.0 -346.0Q321.0 -346.0 306.0 -316.0Q291.0 -286.0 288.0 -204.0Q283.0 -117.0 264.5 -69.5Q246.0 -22.0 217.0 -3.5Q188.0 15.0 150.0 15.0Q106.0 15.0 81.5 -19.0Q57.0 -53.0 57.0 -108.0Z"/><path d="M1276.0 -306.0 1269.0 -316.0 1459.0 -439.0Q1579.0 -518.0 1658.5 -609.0Q1738.0 -700.0 1777.0 -809.0Q1816.0 -918.0 1816.0 -1050.0Q1816.0 -1179.0 1788.5 -1257.0Q1761.0 -1335.0 1716.0 -1370.5Q1671.0 -1406.0 1618.0 -1406.0Q1523.0 -1406.0 1474.5 -1349.5Q1426.0 -1293.0 1426.0 -1195.0V-1065.0Q1426.0 -995.0 1389.0 -955.5Q1352.0 -916.0 1298.0 -916.0Q1240.0 -916.0 1207.0 -949.5Q1174.0 -983.0 1174.0 -1045.0Q1174.0 -1140.0 1230.5 -1226.0Q1287.0 -1312.0 1398.5 -1366.0Q1510.0 -1420.0 1673.0 -1420.0Q1810.0 -1420.0 1906.5 -1374.5Q2003.0 -1329.0 2053.5 -1249.0Q2104.0 -1169.0 2104.0 -1065.0Q2104.0 -960.0 2052.5 -867.0Q2001.0 -774.0 1887.0 -680.0Q1773.0 -586.0 1585.0 -476.0ZM1148.0 -108.0Q1148.0 -221.0 1231.0 -290.5Q1314.0 -360.0 1471.0 -360.0Q1532.0 -360.0 1595.5 -341.5Q1659.0 -323.0 1722.0 -299.5Q1785.0 -276.0 1844.5 -257.5Q1904.0 -239.0 1957.0 -239.0Q2033.0 -239.0 2074.5 -271.0Q2116.0 -303.0 2142.0 -385.0Q2144.0 -390.0 2145.5 -391.5Q2147.0 -393.0 2149.0 -392.0Q2152.0 -391.0 2152.5 -389.0Q2153.0 -387.0 2153.0 -384.0Q2136.0 -228.0 2096.0 -141.0Q2056.0 -54.0 1995.0 -18.5Q1934.0 17.0 1856.0 17.0Q1788.0 17.0 1736.0 -7.0Q1684.0 -31.0 1636.5 -92.0Q1589.0 -153.0 1534.0 -263.0Q1498.0 -310.0 1476.5 -328.0Q1455.0 -346.0 1438.0 -346.0Q1412.0 -346.0 1397.0 -316.0Q1382.0 -286.0 1379.0 -204.0Q1374.0 -117.0 1355.5 -69.5Q1337.0 -22.0 1308.0 -3.5Q1279.0 15.0 1241.0 15.0Q1197.0 15.0 1172.5 -19.0Q1148.0 -53.0 1148.0 -108.0Z"/></g></g></g></svg>